<svg id="Layer_1" data-name="Layer 1" xmlns="http://www.w3.org/2000/svg" width="23" height="23"
    viewBox="0 0 15.75 15.75">
    <title>Suspend</title>
    <path d="M2.875,10.375a7.5,7.5,0,0,1,7.5-7.5" transform="translate(-2.5 -2.5)"
        style="fill:none;stroke:#666;stroke-miterlimit:10;stroke-width:0.75px" />
    <path d="M17.875,10.375a7.5,7.5,0,0,0-7.5-7.5" transform="translate(-2.5 -2.5)"
        style="fill:none;stroke:#666;stroke-miterlimit:10;stroke-width:0.75px" />
    <path d="M2.875,10.375a7.5,7.5,0,0,0,7.5,7.5" transform="translate(-2.5 -2.5)"
        style="fill:none;stroke:#666;stroke-miterlimit:10;stroke-width:0.75px" />
    <path d="M17.875,10.375a7.5,7.5,0,0,1-7.5,7.5" transform="translate(-2.5 -2.5)"
        style="fill:none;stroke:#666;stroke-miterlimit:10;stroke-width:0.75px" />
    <path d="M8.375,7h0v6h0V7Z" transform="translate(-2.5 -2.5)"
        style="fill:#4d4d4d;stroke:#666;stroke-linecap:round;stroke-linejoin:round" />
    <path d="M12.375,7h0v6h0V7Z" transform="translate(-2.5 -2.5)"
        style="fill:#4d4d4d;stroke:#666;stroke-linecap:round;stroke-linejoin:round" />
</svg>